<svg width="715" height="1466" viewBox="0 0 715 1466" fill="none" xmlns="http://www.w3.org/2000/svg">
  <defs>
    <linearGradient id="shellStroke" x1="72" y1="58" x2="648" y2="1408" gradientUnits="userSpaceOnUse">
      <stop stop-color="#A8ADB5"/>
      <stop offset="0.16" stop-color="#61666D"/>
      <stop offset="0.34" stop-color="#181A1E"/>
      <stop offset="0.52" stop-color="#454A52"/>
      <stop offset="0.74" stop-color="#0A0B0D"/>
      <stop offset="1" stop-color="#9197A0"/>
    </linearGradient>
    <linearGradient id="shellEdge" x1="107" y1="83" x2="611" y2="1372" gradientUnits="userSpaceOnUse">
      <stop stop-color="#FFFFFF" stop-opacity="0.66"/>
      <stop offset="0.22" stop-color="#FFFFFF" stop-opacity="0.08"/>
      <stop offset="0.5" stop-color="#FFFFFF" stop-opacity="0.18"/>
      <stop offset="0.78" stop-color="#000000" stop-opacity="0.34"/>
      <stop offset="1" stop-color="#FFFFFF" stop-opacity="0.28"/>
    </linearGradient>
    <linearGradient id="bezelStroke" x1="96" y1="92" x2="621" y2="1373" gradientUnits="userSpaceOnUse">
      <stop stop-color="#1B1C20"/>
      <stop offset="0.5" stop-color="#020202"/>
      <stop offset="1" stop-color="#191A1E"/>
    </linearGradient>
    <linearGradient id="buttonFill" x1="0" y1="0" x2="0" y2="1">
      <stop stop-color="#8D929A"/>
      <stop offset="0.45" stop-color="#43474D"/>
      <stop offset="1" stop-color="#1D2025"/>
    </linearGradient>
    <radialGradient id="cameraGlow" cx="0" cy="0" r="1" gradientUnits="userSpaceOnUse" gradientTransform="translate(428 114) rotate(90) scale(14)">
      <stop stop-color="#67C8FF"/>
      <stop offset="0.32" stop-color="#18365A"/>
      <stop offset="0.72" stop-color="#040507"/>
      <stop offset="1" stop-color="#000000"/>
    </radialGradient>
    <filter id="shadow" x="0" y="0" width="715" height="1466" filterUnits="userSpaceOnUse" color-interpolation-filters="sRGB">
      <feDropShadow dx="0" dy="28" stdDeviation="30" flood-color="#000000" flood-opacity="0.38"/>
      <feDropShadow dx="0" dy="10" stdDeviation="8" flood-color="#000000" flood-opacity="0.22"/>
    </filter>
  </defs>

  <g filter="url(#shadow)">
    <rect x="30" y="30" width="655" height="1406" rx="108" stroke="url(#shellStroke)" stroke-width="28"/>
    <rect x="43" y="43" width="629" height="1380" rx="95" stroke="url(#shellEdge)" stroke-opacity="0.95" stroke-width="3"/>
    <rect x="62" y="62" width="591" height="1342" rx="84" stroke="#050505" stroke-width="24"/>
    <rect x="74" y="74" width="567" height="1318" rx="74" stroke="url(#bezelStroke)" stroke-width="8"/>

    <rect x="61" y="190" width="7" height="118" rx="3.5" fill="url(#buttonFill)"/>
    <rect x="56" y="330" width="9" height="168" rx="4.5" fill="url(#buttonFill)"/>
    <rect x="56" y="530" width="9" height="168" rx="4.5" fill="url(#buttonFill)"/>
    <rect x="650" y="372" width="9" height="236" rx="4.5" fill="url(#buttonFill)"/>

    <rect x="247" y="88" width="221" height="46" rx="23" fill="#020202"/>
    <rect x="308" y="107" width="66" height="8" rx="4" fill="#2D3034"/>
    <circle cx="428" cy="111" r="13" fill="url(#cameraGlow)"/>
    <circle cx="428" cy="111" r="13" fill="#000000" fill-opacity="0.35"/>
    <circle cx="425" cy="108" r="3.5" fill="#C7F2FF" fill-opacity="0.6"/>

    <path d="M98 114C98 90.804 116.804 72 140 72H290" stroke="white" stroke-opacity="0.26" stroke-width="4" stroke-linecap="round"/>
    <path d="M615 1352C615 1375.2 596.196 1394 573 1394H426" stroke="white" stroke-opacity="0.18" stroke-width="3.5" stroke-linecap="round"/>
  </g>
</svg>
